
<svg xmlns="http://www.w3.org/2000/svg" style="display: none;">
  <!-- Ikona kierowcy -->
  <symbol id="icon-driver" viewBox="0 0 24 24">
    <path fill="currentColor" d="M12 2C13.1 2 14 2.9 14 4C14 5.1 13.1 6 12 6C10.9 6 10 5.1 10 4C10 2.9 10.9 2 12 2ZM21 9V7L19 5.5L17.5 7H6.5L5 5.5L3 7V9C3 9.55 3.45 10 4 10H5V15.5C5 17.43 6.57 19 8.5 19S12 17.43 12 15.5V14H16C17.1 14 18 13.1 18 12V10H20C20.55 10 21 9.55 21 9M7 11.5H9.5V13H7V11.5Z"/>
  </symbol>

  <!-- Ikona pojazdu -->
  <symbol id="icon-vehicle" viewBox="0 0 24 24">
    <path fill="currentColor" d="M5 11L6.5 6.5H17.5L19 11H5ZM17.5 16C16.83 16 16.25 15.67 15.97 15.16L15.5 14H8.5L8.03 15.16C7.75 15.67 7.17 16 6.5 16C5.67 16 5 15.33 5 14.5V13H19V14.5C19 15.33 18.33 16 17.5 16ZM6 18.5C6.83 18.5 7.5 17.83 7.5 17S6.83 15.5 6 15.5 4.5 16.17 4.5 17 5.17 18.5 6 18.5ZM18 18.5C18.83 18.5 19.5 17.83 19.5 17S18.83 15.5 18 15.5 16.5 16.17 16.5 17 17.17 18.5 18 18.5Z"/>
  </symbol>

  <!-- Ikona oceny -->
  <symbol id="icon-rating" viewBox="0 0 24 24">
    <path fill="currentColor" d="M12 17.27L18.18 21L16.54 13.97L22 9.24L14.81 8.63L12 2L9.19 8.63L2 9.24L7.46 13.97L5.82 21L12 17.27Z"/>
  </symbol>

  <!-- Ikona komentarza -->
  <symbol id="icon-comment" viewBox="0 0 24 24">
    <path fill="currentColor" d="M9 22C8.45 22 8 21.55 8 21V18H4C2.9 18 2 17.1 2 16V4C2 2.9 2.9 2 4 2H20C21.1 2 22 2.9 22 4V16C22 17.1 21.1 18 20 18H13.9L10.2 21.71C9.9 22 9.45 22 9 22Z"/>
  </symbol>

  <!-- Ikona raportu -->
  <symbol id="icon-report" viewBox="0 0 24 24">
    <path fill="currentColor" d="M12 2L13.09 8.26L22 9L17.7 12.74L18.18 20.25L12 17.27L5.82 20.25L6.3 12.74L2 9L10.91 8.26L12 2Z"/>
  </symbol>

  <!-- Ikona wyszukiwania -->
  <symbol id="icon-search" viewBox="0 0 24 24">
    <path fill="currentColor" d="M9.5 3C13.09 3 16 5.91 16 9.5C16 11.11 15.41 12.59 14.44 13.73L14.71 14H15.5L20.5 19L19 20.5L14 15.5V14.71L13.73 14.44C12.59 15.41 11.11 16 9.5 16C5.91 16 3 13.09 3 9.5S5.91 3 9.5 3ZM9.5 5C7 5 5 7 5 9.5S7 14 9.5 14S14 12 14 9.5S12 5 9.5 5Z"/>
  </symbol>

  <!-- Ikona statystyk -->
  <symbol id="icon-stats" viewBox="0 0 24 24">
    <path fill="currentColor" d="M22 21H2V3H4V19H6V17H10V19H12V16H16V19H18V12H22V21ZM16 10H12V14H16V10ZM10 8H6V15H10V8ZM22 3V10H18V3H22Z"/>
  </symbol>

  <!-- Ikona rankingu -->
  <symbol id="icon-ranking" viewBox="0 0 24 24">
    <path fill="currentColor" d="M16 4H18V21H16V4ZM10 11H12V21H10V11ZM6 17H8V21H6V17ZM2 2V4H22V2H2Z"/>
  </symbol>

  <!-- Ikona administracji -->
  <symbol id="icon-admin" viewBox="0 0 24 24">
    <path fill="currentColor" d="M12 1L3 5V11C3 16.55 6.84 21.74 12 23C17.16 21.74 21 16.55 21 11V5L12 1ZM12 7C13.4 7 14.8 8.6 14.8 10V11.2C15.2 11.2 15.5 11.4 15.5 11.8V16.5C15.5 16.9 15.2 17.2 14.8 17.2H9.2C8.8 17.2 8.5 16.9 8.5 16.5V11.8C8.5 11.4 8.8 11.2 9.2 11.2V10C9.2 8.6 10.6 7 12 7Z"/>
  </symbol>

  <!-- Ikona profilu -->
  <symbol id="icon-profile" viewBox="0 0 24 24">
    <path fill="currentColor" d="M12 4C13.1 4 14 4.9 14 6S13.1 8 12 8 10 7.1 10 6 10.9 4 12 4ZM12 10C14.67 10 20 11.33 20 14V16C20 17.1 19.1 18 18 18H6C4.9 18 4 17.1 4 16V14C4 11.33 9.33 10 12 10Z"/>
  </symbol>

  <!-- Ikona logowania -->
  <symbol id="icon-login" viewBox="0 0 24 24">
    <path fill="currentColor" d="M10 17.25V14H3V10H10V6.75L15.25 12L10 17.25ZM8 2H17C18.1 2 19 2.9 19 4V20C19 21.1 18.1 22 17 22H8C6.9 22 6 21.1 6 20V16H8V20H17V4H8V8H6V4C6 2.9 6.9 2 8 2Z"/>
  </symbol>

  <!-- Ikona rejestracji -->
  <symbol id="icon-register" viewBox="0 0 24 24">
    <path fill="currentColor" d="M15 14C12.33 14 7 15.33 7 18V20H23V18C23 15.33 17.67 14 15 14ZM6 10V7H4V10H1V12H4V15H6V12H9V10H6ZM15 12C16.66 12 18 10.66 18 9S16.66 6 15 6 12 7.34 12 9 13.34 12 15 12Z"/>
  </symbol>

  <!-- Ikona mapy -->
  <symbol id="icon-map" viewBox="0 0 24 24">
    <path fill="currentColor" d="M20.5 3L20.34 3.03L15 5.1L9 3L3.36 4.9C3.15 4.97 3 5.15 3 5.38V20.5C3 20.78 3.22 21 3.5 21L3.66 20.97L9 18.9L15 21L20.64 19.1C20.85 19.03 21 18.85 21 18.62V3.5C21 3.22 20.78 3 20.5 3ZM10 5.47L14 6.87V18.53L10 17.13V5.47ZM5 6.46L8 5.45V17.15L5 18.31V6.46ZM19 17.54L16 18.55V6.85L19 5.69V17.54Z"/>
  </symbol>

  <!-- Ikona dashboardu -->
  <symbol id="icon-dashboard" viewBox="0 0 24 24">
    <path fill="currentColor" d="M13 3V9H21V3M13 21H21V11H13M3 21H11V15H3M3 13H11V3H3V13Z"/>
  </symbol>

  <!-- Ikona blokowania -->
  <symbol id="icon-block" viewBox="0 0 24 24">
    <path fill="currentColor" d="M12 2C17.5 2 22 6.5 22 12S17.5 22 12 22 2 17.5 2 12 6.5 2 12 2ZM12 4C7.58 4 4 7.58 4 12S7.58 20 12 20 20 16.42 20 12 16.42 4 12 4ZM18 12C18 15.31 15.31 18 12 18V6C15.31 6 18 8.69 18 12Z"/>
  </symbol>

  <!-- Ikona ostrzeżenia -->
  <symbol id="icon-warning" viewBox="0 0 24 24">
    <path fill="currentColor" d="M13 14H11V10H13M13 18H11V16H13M1 21H23L12 2L1 21Z"/>
  </symbol>

  <!-- Ikona sukcesu -->
  <symbol id="icon-success" viewBox="0 0 24 24">
    <path fill="currentColor" d="M12 2C17.5 2 22 6.5 22 12S17.5 22 12 22 2 17.5 2 12 6.5 2 12 2ZM10 17L18 9L16.59 7.58L10 14.17L7.41 11.59L6 13L10 17Z"/>
  </symbol>
</svg>
